PathFileType	4	(X/Y/Z)	/Users/itak/Documents/Research/Walk-IL/dataset/trc/00529_00183.trc
DataRate	CameraRate	NumFrames	NumMarkers	Units	OrigDataRate	OrigDataStartFrame	OrigNumFrames
100.000000	100.000000	4	53	mm	100.000000	420	481
Frame#	Time	RPSI			LPSI			L3			STRN			T10			C7			CLAV			RBAK			LBAK			LSHO			LUPA			LAEL			LAOL			LWTS			LWPS			LFRA			LIFD			LHPS			LHTS			RSHO			RUPA			RAEL			RAOL			RWTS			RWPS			RFRA			RIFD			RHTS			RHPS			RBHD			LFHD			RFHD			LBHD			LHIP			RHIP			RASI			LASI			LKNE			LTHI			LANK			LTIP			LTOE			LMT1			LMT5			LHEE			RKNE			RTHI			RANK			RTIP			RTOE			RMT1			RMT5			RHEE			
		X1	Y1	Z1	X2	Y2	Z2	X3	Y3	Z3	X4	Y4	Z4	X5	Y5	Z5	X6	Y6	Z6	X7	Y7	Z7	X8	Y8	Z8	X9	Y9	Z9	X10	Y10	Z10	X11	Y11	Z11	X12	Y12	Z12	X13	Y13	Z13	X14	Y14	Z14	X15	Y15	Z15	X16	Y16	Z16	X17	Y17	Z17	X18	Y18	Z18	X19	Y19	Z19	X20	Y20	Z20	X21	Y21	Z21	X22	Y22	Z22	X23	Y23	Z23	X24	Y24	Z24	X25	Y25	Z25	X26	Y26	Z26	X27	Y27	Z27	X28	Y28	Z28	X29	Y29	Z29	X30	Y30	Z30	X31	Y31	Z31	X32	Y32	Z32	X33	Y33	Z33	X34	Y34	Z34	X35	Y35	Z35	X36	Y36	Z36	X37	Y37	Z37	X38	Y38	Z38	X39	Y39	Z39	X40	Y40	Z40	X41	Y41	Z41	X42	Y42	Z42	X43	Y43	Z43	X44	Y44	Z44	X45	Y45	Z45	X46	Y46	Z46	X47	Y47	Z47	X48	Y48	Z48	X49	Y49	Z49	X50	Y50	Z50	X51	Y51	Z51	X52	Y52	Z52	X53	Y53	Z53	

421	4.2	933.5048828125	959.8295288085938	684.7821655273438	998.5764770507812	954.5399780273438	578.3181762695312	956.3439331054688	1016.55517578125	620.2503662109375	1140.036499023438	1194.707763671875	712.781005859375	935.3341064453125	1120.444946289062	610.8550415039062	957.855224609375	1353.843139648438	621.6038818359375	1102.04052734375	1286.732543945312	691.7984619140625	884.9341430664062	1229.992065429688	682.1492309570312	977.5765991210938	1296.985717773438	534.656494140625	1092.645141601562	1347.328857421875	508.5874938964844	1115.60986328125	1220.791259765625	451.5890808105469	1151.485473632812	1012.824829101562	436.5700073242188	1058.919311523438	997.5519409179688	469.4754333496094	1234.041381835938	835.9608154296875	510.5408935546875	1182.7431640625	793.2835693359375	443.9974060058594	1174.326171875	931.1653442382812	444.2278442382812	1248.474243164062	679.7743530273438	524.438232421875	1208.488891601562	742.3856201171875	459.0234069824219	1257.294677734375	759.7155151367188	497.9798889160156	942.7232666015625	1353.082153320312	779.3793334960938	905.0931396484375	1286.971923828125	826.8005981445312	890.01171875	1020.644653320312	872.1209106445312	867.1673583984375	1002.893371582031	812.62841796875	989.798583984375	822.3682250976562	913.4395751953125	903.7055053710938	796.6844482421875	903.3743896484375	890.7184448242188	966.659912109375	882.2131958007812	995.2296142578125	663.23779296875	925.6983642578125	989.4534912109375	731.0330810546875	946.3193969726562	924.7543334960938	725.4163208007812	922.0917358398438	936.4949951171875	1504.538208007812	691.8344116210938	1112.669067382812	1588.128540039062	646.5977783203125	1035.886596679688	1581.883056640625	747.8115844726562	1021.667297363281	1505.557006835938	557.166015625	1154.552856445312	877.1058959960938	522.3162841796875	963.69921875	866.6723022460938	850.88330078125	1079.738647460938	909.9421997070312	841.89111328125	1199.80908203125	914.5348510742188	630.9437255859375	1122.1103515625	457.6155395507812	572.1958618164062	1158.988525390625	612.9974975585938	558.7030029296875	990.6039428710938	44.7376594543457	514.9170532226562	1083.401123046875	309.0528259277344	549.4441528320312	1133.337158203125	27.24618530273438	664.8193359375	1047.435791015625	34.02299118041992	655.0894775390625	1087.759155273438	33.68237686157227	560.8887939453125	920.5236206054688	42.8157958984375	545.2225952148438	965.3046264648438	477.1031799316406	826.7732543945312	977.5994262695312	737.5380859375	867.751953125	923.5399169921875	43.21205139160156	766.86572265625	972.0630493164062	334.154052734375	807.3309326171875	1125.191528320312	31.13237953186035	805.2815551757812	1077.28955078125	37.91028594970703	745.5077514648438	1022.028564453125	36.32929229736328	824.5652465820312	893.2380981445312	36.39722061157227	702.5595092773438	
422	4.21	934.6572875976562	959.5671997070312	686.2604370117188	1000.048645019531	954.2317504882812	579.8556518554688	957.24609375	1016.014282226562	621.6522216796875	1141.176879882812	1194.310546875	714.3355102539062	936.498779296875	1120.1630859375	612.049072265625	959.0755004882812	1353.456787109375	623.07470703125	1103.220458984375	1286.329467773438	693.2755126953125	886.2031860351562	1229.605346679688	683.6534423828125	978.8052978515625	1296.475341796875	536.19970703125	1093.886352539062	1346.767700195312	509.9653015136719	1116.406982421875	1220.148559570312	452.9656372070312	1150.883911132812	1012.008056640625	437.8666076660156	1058.201293945312	997.3469848632812	470.9486694335938	1230.515869140625	832.505126953125	510.7882080078125	1178.454833984375	791.5857543945312	443.7017822265625	1172.62744140625	929.4663696289062	444.9028625488281	1240.761352539062	675.7614135742188	523.5025634765625	1202.817993164062	739.92431640625	458.4632263183594	1251.908447265625	755.6798706054688	497.821044921875	943.9251098632812	1352.732666015625	780.8165283203125	906.3614501953125	1286.67919921875	828.342529296875	891.8919677734375	1020.238098144531	874.4435424804688	868.8914794921875	1002.295715332031	814.9907836914062	992.845947265625	822.967041015625	916.3682861328125	906.9288330078125	796.4635009765625	906.4445190429688	892.8070678710938	966.3605346679688	884.6355590820312	999.5497436523438	663.9744262695312	929.4310913085938	993.2083129882812	731.8123779296875	949.725830078125	928.6030883789062	725.648193359375	925.6196899414062	937.63720703125	1504.049194335938	693.2544555664062	1113.617309570312	1587.9208984375	647.8079223632812	1036.933715820312	1581.562744140625	749.1150512695312	1022.669555664062	1505.238159179688	558.4742431640625	1157.476684570312	877.0427856445312	524.6343383789062	964.8472900390625	866.2700805664062	852.390625	1080.64794921875	909.54345703125	843.5587768554688	1201.24658203125	914.1549682617188	632.8741455078125	1122.5869140625	457.4370727539062	572.7239990234375	1160.05517578125	612.7443237304688	559.892578125	990.5875854492188	44.73710632324219	514.8997802734375	1083.551879882812	309.0701599121094	549.6360473632812	1133.3271484375	27.28434944152832	664.7964477539062	1047.430297851562	34.03536605834961	655.084228515625	1087.742553710938	33.67444229125977	560.8721923828125	920.5140991210938	42.82226181030273	545.2162475585938	965.357177734375	476.8580017089844	827.481201171875	978.0879516601562	737.071044921875	869.026611328125	923.5513916015625	43.19710540771484	766.8099975585938	971.9419555664062	334.0090942382812	807.8248291015625	1125.212158203125	31.1163215637207	805.2819213867188	1077.2939453125	37.87129592895508	745.4904174804688	1022.039733886719	36.32428359985352	824.534423828125	893.2468872070312	36.36331939697266	702.4940185546875	
423	4.22	935.7127685546875	959.2930908203125	687.6950073242188	1001.406494140625	953.9156494140625	581.3534545898438	958.0814208984375	1015.567932128906	623.0401611328125	1142.251342773438	1193.946655273438	715.8496704101562	937.5617065429688	1119.943603515625	613.2154541015625	960.260009765625	1353.114013671875	624.4880981445312	1104.34912109375	1285.966430664062	694.7119140625	887.3941650390625	1229.28125	685.0933837890625	979.974365234375	1296.006591796875	537.7012939453125	1095.0830078125	1346.238647460938	511.3007202148438	1117.139404296875	1219.540771484375	454.2999877929688	1150.243041992188	1011.218505859375	439.1311645507812	1057.449340820312	997.173095703125	472.382080078125	1226.955078125	829.2538452148438	511.0788879394531	1174.27783203125	790.0406494140625	443.4373168945312	1170.928588867188	927.9186401367188	445.6112670898438	1233.253295898438	672.1009521484375	522.6386108398438	1197.294311523438	737.6889038085938	457.9364318847656	1246.587158203125	751.9358520507812	497.7135314941406	945.0670776367188	1352.428100585938	782.20458984375	907.5484619140625	1286.421630859375	829.8510131835938	893.6617431640625	1019.862426757812	876.757568359375	870.46826171875	1001.756225585938	817.255126953125	995.7367553710938	823.57666015625	919.1149291992188	909.9793701171875	796.3693237304688	909.4426879882812	894.746826171875	966.1151123046875	886.97119140625	1003.626892089844	664.7127685546875	932.9063720703125	996.8079833984375	732.5890502929688	952.9151000976562	932.238037109375	725.8763427734375	928.9583740234375	938.75	1503.5849609375	694.6148681640625	1114.544067382812	1587.736450195312	649.0040893554688	1037.932495117188	1581.26220703125	750.3671264648438	1023.653198242188	1504.929443359375	559.7762451171875	1159.915161132812	876.9559936523438	526.7562866210938	965.9081420898438	865.8613891601562	853.8460693359375	1081.484741210938	909.1830444335938	845.1401977539062	1202.6025390625	913.8153076171875	634.7025146484375	1123.063354492188	457.276611328125	573.227783203125	1161.062133789062	612.5191650390625	561.0310668945312	990.584716796875	44.74606323242188	514.8694458007812	1083.673706054688	309.0908203125	549.7989501953125	1133.321533203125	27.31582450866699	664.7764892578125	1047.431640625	34.05176544189453	655.071044921875	1087.731811523438	33.6609992980957	560.8508911132812	920.5087890625	42.85024642944336	545.2105712890625	965.6942749023438	476.6063232421875	828.1351318359375	978.8717651367188	736.6322631835938	870.256103515625	923.5719604492188	43.19026184082031	766.739501953125	972.0451049804688	333.8337707519531	808.2660522460938	1125.241455078125	31.09573745727539	805.2754516601562	1077.30859375	37.81162643432617	745.4624633789062	1022.063537597656	36.32840728759766	824.4816284179688	893.2557373046875	36.32971572875977	702.4166870117188	
424	4.23	936.6941528320312	959.0132446289062	689.08154296875	1002.665649414062	953.6126708984375	582.8095703125	958.8919067382812	1015.201049804688	624.3870849609375	1143.2685546875	1193.620361328125	717.3197631835938	938.5394287109375	1119.767211914062	614.36328125	961.39990234375	1352.81591796875	625.8485717773438	1105.427612304688	1285.644409179688	696.1060180664062	888.5057373046875	1229.009765625	686.4716186523438	981.0888061523438	1295.586669921875	539.1531372070312	1096.23046875	1345.749145507812	512.5949096679688	1117.802612304688	1218.976806640625	455.5885314941406	1149.55126953125	1010.463134765625	440.3538513183594	1056.656494140625	997.0332641601562	473.78515625	1223.385131835938	826.23193359375	511.4076843261719	1170.223999023438	788.6486206054688	443.2197570800781	1169.225341796875	926.5320434570312	446.3554077148438	1226.061401367188	668.8190307617188	521.8733520507812	1191.953125	735.6807250976562	457.4609375	1241.373168945312	748.5051879882812	497.6537475585938	946.1491088867188	1352.165405273438	783.5429077148438	908.6558837890625	1286.193725585938	831.3202514648438	895.3405151367188	1019.534118652344	879.0789794921875	871.8992309570312	1001.274841308594	819.426025390625	998.4700927734375	824.1844482421875	921.673828125	912.8536376953125	796.3771362304688	912.3569946289062	896.5479125976562	965.9196166992188	889.2195434570312	1007.451599121094	665.4404296875	936.1339721679688	1000.241271972656	733.3553466796875	955.8871459960938	935.640625	726.0768432617188	932.0858154296875	939.829345703125	1503.161254882812	695.917236328125	1115.455322265625	1587.56982421875	650.1856079101562	1038.8984375	1580.989501953125	751.5737915039062	1024.61181640625	1504.620849609375	561.07373046875	1161.87353515625	876.8385620117188	528.6685791015625	966.898193359375	865.4608154296875	855.2459716796875	1082.265747070312	908.8604125976562	846.63916015625	1203.8798828125	913.51171875	636.4267578125	1123.53759765625	457.1353454589844	573.7064208984375	1161.99560546875	612.3236083984375	562.1075439453125	990.5902099609375	44.76529693603516	514.833740234375	1083.769897460938	309.1135864257812	549.9365234375	1133.319213867188	27.33980369567871	664.7607421875	1047.43896484375	34.07147598266602	655.0509033203125	1087.726684570312	33.64363861083984	560.8260498046875	920.5064086914062	42.9000244140625	545.2081298828125	966.2578125	476.3600463867188	828.736083984375	979.8921508789062	736.2295532226562	871.4469604492188	923.5963134765625	43.18779754638672	766.6615600585938	972.301025390625	333.6288757324219	808.6638793945312	1125.2763671875	31.07252502441406	805.2638549804688	1077.330322265625	37.73947906494141	745.4278564453125	1022.095764160156	36.33841323852539	824.4149169921875	893.2656860351562	36.29977798461914	702.3350219726562	
